<?xml version="1.0" standalone="no"?>
<!DOCTYPE svg PUBLIC "-//W3C//DTD SVG 20010904//EN"
 "http://www.w3.org/TR/2001/REC-SVG-20010904/DTD/svg10.dtd">
<svg version="1.0" xmlns="http://www.w3.org/2000/svg"
 width="799.000000pt" height="545.000000pt" viewBox="0 0 799.000000 545.000000"
 preserveAspectRatio="xMidYMid meet">

<g transform="translate(0.000000,545.000000) scale(0.100000,-0.100000)"
fill="#000000" stroke="none">
<path d="M0 2725 l0 -2725 3995 0 3995 0 0 2725 0 2725 -3995 0 -3995 0 0
-2725z m3944 2103 c9 -40 36 -289 46 -416 5 -68 14 -130 21 -138 6 -8 22 -14
35 -14 13 0 24 -4 24 -9 0 -4 -32 -45 -72 -91 l-72 -83 -73 79 c-40 43 -73 84
-73 89 0 6 15 15 33 20 36 11 29 -25 61 300 23 234 28 269 33 278 9 15 33 6
37 -15z m-1108 -371 c22 -24 68 -77 104 -117 36 -41 88 -99 115 -130 28 -31
69 -77 93 -104 41 -47 43 -48 67 -32 13 9 27 16 30 16 7 0 6 -60 -2 -142 -7
-79 0 -77 -134 -51 l-88 17 25 29 c13 16 21 34 17 40 -4 7 -28 44 -54 82 -25
39 -56 88 -68 110 -12 22 -36 63 -54 92 -100 163 -128 213 -122 223 12 19 33
10 71 -33z m2237 12 c-1 -23 -42 -97 -89 -164 -26 -36 -104 -165 -104 -171 0
-3 -22 -38 -50 -80 -27 -41 -50 -79 -50 -83 0 -4 9 -16 20 -26 11 -10 20 -21
20 -25 0 -4 -37 -15 -82 -23 -46 -9 -92 -19 -104 -22 -18 -6 -22 -1 -27 24
-11 54 -20 191 -13 191 4 0 18 -7 32 -17 29 -19 8 -38 188 168 146 165 238
260 251 255 5 -2 9 -14 8 -27z m-838 -594 c139 -36 266 -120 305 -200 19 -39
20 -49 9 -56 -23 -15 -58 -10 -75 10 -54 65 -104 111 -120 111 -15 0 -13 -6
13 -32 51 -55 62 -118 26 -160 -22 -25 -67 -31 -123 -17 -46 12 -53 11 -89 -9
-84 -48 -186 -18 -217 64 -22 58 -11 101 34 129 27 17 32 25 28 50 -3 25 16
95 26 95 2 0 21 7 43 15 52 18 68 18 140 0z m-426 -6 c45 -16 63 -55 46 -97
-19 -43 -58 -58 -190 -71 -82 -8 -123 -18 -162 -37 -82 -39 -148 -105 -188
-187 -103 -209 -73 -604 62 -837 78 -134 227 -253 335 -268 l38 -5 0 -99 0
-99 -97 3 -98 3 -6 35 c-7 42 -40 109 -66 132 -44 40 -86 48 -258 48 -181 0
-218 8 -248 53 -9 15 -17 37 -17 50 0 52 -13 85 -37 98 -32 17 -49 47 -34 62
17 17 13 41 -9 55 -22 14 -26 51 -7 71 10 10 3 20 -31 49 -36 31 -43 43 -40
67 3 32 4 32 131 90 34 16 68 41 85 62 25 34 27 43 28 148 1 118 9 155 57 250
109 220 299 368 539 420 79 17 126 18 167 4z m-1640 -168 c53 -22 157 -65 231
-96 168 -71 196 -77 209 -42 23 59 38 44 75 -73 15 -47 29 -90 32 -96 7 -17
-44 -36 -188 -68 -26 -6 -27 -5 -25 33 l2 40 -230 153 c-212 141 -266 188
-219 188 9 0 60 -18 113 -39z m3631 25 c0 -21 -38 -50 -264 -196 l-207 -135 6
-38 c5 -34 3 -38 -12 -33 -10 3 -52 13 -93 22 -118 26 -113 17 -74 135 19 56
37 106 41 112 3 6 18 -5 33 -24 33 -39 22 -41 220 41 339 141 350 144 350 116z
m-1934 -141 c117 -121 53 -285 -110 -285 -100 0 -216 41 -265 94 -16 17 -25
41 -29 74 -4 41 0 52 23 80 50 60 111 79 249 81 l89 1 43 -45z m948 -48 c116
-119 182 -342 113 -379 -18 -9 -26 -5 -61 35 -23 25 -56 53 -74 62 -49 24 -68
65 -87 186 -19 128 -16 149 27 149 23 0 42 -12 82 -53z m-220 -18 c33 -26 36
-79 5 -110 -17 -17 -29 -20 -63 -16 -48 7 -76 36 -76 78 0 63 79 91 134 48z
m-1584 -83 c-23 -47 -51 -116 -64 -153 -24 -70 -46 -94 -46 -49 0 36 36 142
66 193 29 50 75 106 81 99 3 -3 -14 -43 -37 -90z m1333 -10 c68 -28 127 -132
127 -222 0 -54 -38 -140 -85 -192 -24 -27 -77 -70 -117 -97 -40 -27 -98 -74
-130 -105 -64 -65 -88 -124 -88 -222 0 -33 -4 -58 -10 -58 -17 0 -70 91 -89
155 -39 126 -35 244 10 305 22 29 22 29 3 57 -30 44 -25 143 10 215 32 65 98
131 159 159 50 22 162 26 210 5z m-933 -57 c16 -38 95 -97 180 -134 77 -34
125 -67 168 -116 66 -76 80 -158 36 -216 l-26 -34 27 -34 c93 -122 101 -269
19 -334 -41 -32 -82 -35 -147 -11 -195 73 -339 383 -324 698 8 183 36 257 67
181z m1308 -137 c66 -49 92 -83 98 -129 13 -90 50 -126 127 -122 58 3 67 -4
67 -59 0 -60 -28 -120 -71 -156 -29 -25 -39 -28 -85 -24 -35 3 -61 12 -85 30
l-33 26 -48 -24 c-59 -30 -95 -30 -139 -1 -81 54 -92 169 -25 268 31 46 36 62
36 112 0 57 12 94 34 109 27 19 75 7 124 -30z m-2237 -379 c19 -21 51 -50 70
-65 l34 -26 -84 -81 c-46 -45 -86 -79 -89 -77 -2 3 -7 20 -11 38 -8 41 1 39
-328 75 -244 26 -253 28 -253 49 0 20 6 22 98 28 230 17 476 46 484 58 4 7 8
23 8 36 0 29 21 19 71 -35z m3007 -17 c47 -5 295 -30 446 -44 44 -4 81 -11 83
-17 8 -26 -20 -36 -153 -50 -76 -9 -199 -22 -273 -30 -74 -8 -137 -18 -140
-21 -3 -3 -10 -21 -16 -39 l-10 -34 -85 81 -84 80 29 25 c17 14 45 39 64 57
19 17 46 39 60 48 l26 18 3 -34 c3 -33 5 -35 50 -40z m-1109 -11 c82 -42 79
-200 -5 -279 -33 -30 -121 -66 -164 -66 -16 0 -41 11 -57 24 -25 22 -28 31
-28 88 0 73 19 120 74 176 64 66 125 86 180 57z m473 -187 c58 -25 72 -41 64
-71 -8 -35 -102 -122 -168 -157 -107 -57 -265 -73 -371 -38 -87 29 -80 63 23
104 64 25 71 30 86 70 35 91 108 127 239 118 45 -4 100 -15 127 -26z m-620
-261 l94 -64 -28 -34 c-16 -19 -33 -51 -39 -71 l-10 -38 -89 0 -90 0 0 117 c0
107 2 119 22 140 12 13 27 21 34 19 7 -3 55 -34 106 -69z m528 -341 c116 -59
180 -151 188 -271 8 -131 -58 -241 -181 -304 -62 -32 -69 -33 -163 -29 -115 4
-171 25 -237 91 -144 144 -120 372 52 488 71 48 110 58 206 55 64 -2 91 -8
135 -30z m1391 14 c78 -24 143 -65 132 -84 -5 -7 -23 -30 -42 -51 -28 -32 -36
-36 -50 -26 -78 57 -167 66 -249 25 -101 -50 -132 -183 -64 -279 37 -54 90
-79 168 -79 33 0 75 6 92 13 29 12 32 17 32 57 l0 44 -65 0 -65 0 0 60 0 61
128 -3 127 -3 0 -140 0 -140 -68 -33 c-199 -95 -421 -36 -501 133 -66 138 -20
314 103 399 93 65 210 81 322 46z m-725 -6 c102 -12 174 -99 174 -209 0 -66
-17 -105 -72 -161 l-39 -41 31 -53 c17 -29 42 -69 55 -88 14 -20 25 -40 25
-44 0 -5 -33 -8 -73 -8 l-73 0 -43 68 c-69 106 -77 112 -136 112 -28 0 -56 -5
-63 -12 -7 -7 -12 -42 -12 -89 l0 -77 -66 -4 c-36 -1 -68 -1 -70 1 -2 2 -4
140 -4 307 0 218 3 303 11 306 16 5 303 -1 355 -8z m-4232 -177 l99 -178 42
73 c23 40 69 120 101 178 l59 105 73 3 72 3 0 -305 c0 -168 -3 -307 -7 -309
-5 -3 -35 -2 -68 2 l-60 6 -5 178 -5 179 -79 -146 -80 -146 -42 0 -41 0 -61
108 c-33 59 -68 122 -77 141 -22 43 -36 26 -34 -39 1 -25 1 -98 0 -162 l-1
-118 -65 0 -65 0 0 305 0 306 73 -3 72 -3 99 -178z m730 161 c8 -30 8 -235 -1
-430 l-6 -158 -69 0 -68 0 0 305 0 305 69 0 c63 0 69 -2 75 -22z m374 -96 c50
-64 113 -145 140 -179 26 -34 50 -62 55 -63 4 0 7 75 7 168 0 92 4 173 9 180
5 9 27 12 72 10 l64 -3 0 -297 c0 -185 -4 -300 -10 -306 -5 -5 -36 -6 -67 -3
l-58 6 -141 180 c-77 99 -145 182 -150 183 -5 2 -9 -75 -9 -182 l0 -186 -70 0
-70 0 0 305 0 305 68 0 67 -1 93 -117z m926 88 c95 -49 148 -121 168 -229 25
-133 -63 -280 -197 -331 -54 -21 -76 -23 -228 -22 -92 0 -172 4 -177 7 -6 4
-10 118 -10 306 l0 301 198 -4 c187 -3 200 -4 246 -28z m984 -27 l-3 -58 -167
-3 -168 -2 0 -70 0 -69 148 -3 147 -3 3 -57 3 -57 -148 -3 -148 -3 -5 -114 -5
-113 -65 0 -65 0 -3 306 -2 306 240 0 241 0 -3 -57z m2700 0 l-3 -58 -162 -3
-163 -2 0 -60 0 -60 145 0 c144 0 145 0 151 -24 3 -13 4 -38 2 -57 l-3 -34
-147 -3 -148 -3 0 -64 0 -65 170 0 171 0 -3 -62 -3 -63 -40 -3 c-22 -2 -131
-1 -242 3 l-203 7 0 304 0 304 240 0 241 0 -3 -57z m-3107 -810 c6 -6 15 -53
20 -104 11 -116 23 -152 60 -184 39 -32 69 -32 101 3 41 43 48 66 58 173 4 56
13 107 20 113 7 7 79 12 206 14 l196 4 -7 -44 c-7 -44 -20 -61 -72 -89 -23
-12 -31 -27 -41 -70 -7 -30 -31 -92 -54 -139 -33 -67 -59 -102 -123 -165 -104
-102 -230 -199 -247 -189 -22 13 -171 135 -216 178 -91 85 -159 202 -187 321
-10 43 -17 53 -56 75 -37 22 -46 33 -55 71 -6 24 -8 46 -4 49 16 11 389 -5
401 -17z"/>
<path d="M4509 1911 c-97 -61 -115 -191 -41 -290 31 -42 77 -61 147 -61 62 0
86 9 128 49 73 67 77 197 8 275 -54 62 -168 75 -242 27z"/>
<path d="M5210 1845 c0 -47 -1 -88 -2 -92 -5 -13 139 -15 183 -3 33 9 43 18
56 47 12 31 13 41 1 72 -19 49 -48 61 -150 61 l-88 0 0 -85z"/>
<path d="M2930 1744 l0 -186 98 4 c110 4 153 22 185 78 60 102 36 214 -58 267
-33 19 -55 23 -132 23 l-93 0 0 -186z"/>
</g>
</svg>
